<svg xmlns="http://www.w3.org/2000/svg" width="512" height="512" viewBox="0 0 512 512">
  <!-- The Goal Archive · Pelouse nocturne : gazon sombre + grille de but + trajectoire dorée -->
  <rect width="512" height="512" rx="96" fill="#0A1410"/>
  <rect x="8" y="8" width="496" height="496" rx="90" fill="none" stroke="#25382B" stroke-width="3"/>

  <!-- Rayures de tonte (bords nets) -->
  <g fill="#0E1A13">
    <rect x="40" y="40" width="60" height="432"/>
    <rect x="160" y="40" width="60" height="432"/>
    <rect x="280" y="40" width="60" height="432"/>
    <rect x="400" y="40" width="60" height="432"/>
  </g>

  <!-- Grille de but / filet -->
  <g stroke="#36513F" stroke-width="3" opacity="0.9">
    <rect x="120" y="150" width="272" height="212" rx="10" fill="none"/>
    <line x1="120" y1="203" x2="392" y2="203"/>
    <line x1="120" y1="256" x2="392" y2="256"/>
    <line x1="120" y1="309" x2="392" y2="309"/>
    <line x1="188" y1="150" x2="188" y2="362"/>
    <line x1="256" y1="150" x2="256" y2="362"/>
    <line x1="324" y1="150" x2="324" y2="362"/>
  </g>

  <!-- Trajectoire de tir dorée vers la lucarne -->
  <path d="M104 408 C 200 360, 300 250, 372 178" fill="none"
        stroke="#F2C14E" stroke-width="14" stroke-linecap="round"/>
  <circle cx="372" cy="178" r="18" fill="#F2C14E"/>
  <circle cx="372" cy="178" r="30" fill="none" stroke="#F2C14E" stroke-width="3" opacity="0.4"/>

  <!-- Ballon au départ du tir -->
  <circle cx="104" cy="408" r="20" fill="#F2F5F0"/>
</svg>
